<mxfile host="app.diagrams.net" agent="Mozilla/5.0 (X11; Linux x86_64) AppleWebKit/537.36 (KHTML, like Gecko) Chrome/134.0.0.0 Safari/537.36" version="26.2.14">
  <diagram name="PÃ¡gina-1" id="pKIzxa91dTFTDfZdOXBX">
    <mxGraphModel grid="0" page="1" gridSize="10" guides="1" tooltips="1" connect="1" arrows="1" fold="1" pageScale="1" pageWidth="827" pageHeight="1169" math="0" shadow="0">
      <root>
        <mxCell id="0" />
        <mxCell id="1" parent="0" />
        <mxCell id="2" value="MAX3010X" style="whiteSpace=wrap;strokeWidth=2;" vertex="1" parent="1">
          <mxGeometry x="80" y="180" width="145" height="54" as="geometry" />
        </mxCell>
        <mxCell id="3" value="Esp32C6" style="whiteSpace=wrap;strokeWidth=2;" vertex="1" parent="1">
          <mxGeometry x="427" y="305" width="108" height="54" as="geometry" />
        </mxCell>
        <mxCell id="4" value="Electrodos" style="whiteSpace=wrap;strokeWidth=2;" vertex="1" parent="1">
          <mxGeometry x="275" y="180" width="157" height="54" as="geometry" />
        </mxCell>
        <mxCell id="5" value="PC (app)-&gt; visualizacion de graficas" style="whiteSpace=wrap;strokeWidth=2;" vertex="1" parent="1">
          <mxGeometry x="482" y="180" width="132" height="54" as="geometry" />
        </mxCell>
        <mxCell id="15" value="" style="curved=1;startArrow=none;endArrow=block;exitX=0.5;exitY=1;entryX=0;entryY=0.31;" edge="1" parent="1" source="2" target="3">
          <mxGeometry relative="1" as="geometry">
            <Array as="points">
              <mxPoint x="153" y="270" />
            </Array>
          </mxGeometry>
        </mxCell>
        <mxCell id="-gpQB6BiS42yJAJFotev-27" value="datos onda de pulso" style="edgeLabel;html=1;align=center;verticalAlign=middle;resizable=0;points=[];" connectable="0" vertex="1" parent="15">
          <mxGeometry x="-0.2055" y="3" relative="1" as="geometry">
            <mxPoint as="offset" />
          </mxGeometry>
        </mxCell>
        <mxCell id="16" value="" style="curved=1;startArrow=none;endArrow=block;exitX=0.5;exitY=1;entryX=0;entryY=0.01;" edge="1" parent="1" source="4" target="3">
          <mxGeometry relative="1" as="geometry">
            <Array as="points">
              <mxPoint x="354" y="270" />
            </Array>
          </mxGeometry>
        </mxCell>
        <mxCell id="-gpQB6BiS42yJAJFotev-28" value="datos ECG" style="edgeLabel;html=1;align=center;verticalAlign=middle;resizable=0;points=[];" connectable="0" vertex="1" parent="16">
          <mxGeometry x="0.0346" y="2" relative="1" as="geometry">
            <mxPoint as="offset" />
          </mxGeometry>
        </mxCell>
        <mxCell id="17" value="" style="curved=1;startArrow=none;endArrow=block;exitX=0.824;exitY=0;exitDx=0;exitDy=0;exitPerimeter=0;entryX=0.5;entryY=1;entryDx=0;entryDy=0;" edge="1" parent="1" source="3" target="5">
          <mxGeometry relative="1" as="geometry">
            <Array as="points" />
            <mxPoint x="462" y="270" as="targetPoint" />
          </mxGeometry>
        </mxCell>
        <mxCell id="-gpQB6BiS42yJAJFotev-31" value="Bluetooth" style="edgeLabel;html=1;align=center;verticalAlign=middle;resizable=0;points=[];" connectable="0" vertex="1" parent="17">
          <mxGeometry x="-0.0502" y="-4" relative="1" as="geometry">
            <mxPoint as="offset" />
          </mxGeometry>
        </mxCell>
      </root>
    </mxGraphModel>
  </diagram>
</mxfile>
